HIERARCHY
ROOT Hips
{
  OFFSET 1.44925e-005 102.336 -0.101585
  CHANNELS 6 Xposition Yposition Zposition Zrotation Xrotation Yrotation
  JOINT LeftUpLeg
  {
    OFFSET 8.9458 -8.66707 0.101652
    CHANNELS 3 Zrotation Xrotation Yrotation
    JOINT LeftLeg
    {
      OFFSET 0 -44.4227 1.3727
      CHANNELS 3 Zrotation Xrotation Yrotation
      JOINT LeftFoot
      {
        OFFSET -0.253549 -42.0924 -1.46059
        CHANNELS 3 Zrotation Xrotation Yrotation
        JOINT LeftToes
        {
          OFFSET -0.04 -4.41509 8.4991
          CHANNELS 3 Zrotation Xrotation Yrotation
          End Site
          {
            OFFSET 0.08 -0.047448 9.77979
          }
        }
      }
    }
  }
  JOINT Spine
  {
    OFFSET 0 11.8905 0
    CHANNELS 3 Zrotation Xrotation Yrotation
    JOINT Spine1
    {
      OFFSET 0 25.6574 0.127663
      CHANNELS 3 Zrotation Xrotation Yrotation
      JOINT RightShoulder
      {
        OFFSET -8.99 -0.362252 -0.22
        CHANNELS 3 Zrotation Xrotation Yrotation
        JOINT RightArm
        {
          OFFSET -10.2827 -0.00338 0.322123
          CHANNELS 3 Zrotation Xrotation Yrotation
          JOINT RightForeArm
          {
            OFFSET -26.364 0.099144 -1.42434
            CHANNELS 3 Zrotation Xrotation Yrotation
            JOINT RightHand
            {
              OFFSET -22.0324 0.085362 1.02216
              CHANNELS 3 Zrotation Xrotation Yrotation
              End Site
              {
                OFFSET -13.3284 -0.6 1.50291
              }
            }
          }
        }
      }
      JOINT LeftShoulder1
      {
        OFFSET 8.99 -0.362252 -0.22
        CHANNELS 3 Zrotation Xrotation Yrotation
        JOINT LeftArm
        {
          OFFSET 10.2827 -0.00337999 0.322123
          CHANNELS 3 Zrotation Xrotation Yrotation
          JOINT LeftForeArm
          {
            OFFSET 26.2597 0.099144 -1.42434
            CHANNELS 3 Zrotation Xrotation Yrotation
            JOINT LeftHand
            {
              OFFSET 22.0902 0.085362 1.02216
              CHANNELS 3 Zrotation Xrotation Yrotation
              End Site
              {
                OFFSET 13.419 -0.6 1.50291
              }
            }
          }
        }
      }
      JOINT Head
      {
        OFFSET 0 8.73416 0.011341
        CHANNELS 3 Zrotation Xrotation Yrotation
        End Site
        {
          OFFSET -0.29 12.7742 2.51395
        }
      }
    }
  }
  JOINT RightUpLeg
  {
    OFFSET -8.9458 -8.66707 0.101652
    CHANNELS 3 Zrotation Xrotation Yrotation
    JOINT RightLeg
    {
      OFFSET 0 -44.4227 1.3727
      CHANNELS 3 Zrotation Xrotation Yrotation
      JOINT RightFoot
      {
        OFFSET 0.253549 -42.0924 -1.46059
        CHANNELS 3 Zrotation Xrotation Yrotation
        JOINT RightToes
        {
          OFFSET 0.04 -4.41509 8.4991
          CHANNELS 3 Zrotation Xrotation Yrotation
          End Site
          {
            OFFSET -0.08 -0.137448 9.77979
          }
        }
      }
    }
  }
}
MOTION
Frames:	10
Frame Time:	0.0333333
73.8461 97.6897 3.16503 -7.94513 -2.1223 -86.9378 -6.90903 17.2901 3.88835 0.380534 16.9133 17.7983 -3.75885 -27.7396 -0.530928 -1.35001e-009 8.75214e-006 -1.4629e-008 -2.02009 11.6726 -1.0047 0.303135 2.19833 -1.19603 38.5329 1.78525 -0.013451 37.613 -18.0273 -2.3472 7.69665 36.3671 9.23696 -9.12775 9.49384 0.183116 -45.3145 3.57097 -3.35535 -25.9086 -16.76 5.66359 -7.72126 41.6318 -9.46821 5.82328 9.61819 -0.917488 0.849256 -13.2384 -6.20968 -2.87898 -18.0741 -3.99515 1.25011 15.3948 -20.125 5.25148 -6.87513 -0.19909 0.0462048 0.000530889 0.662642 
71.0216 97.5579 2.83055 -7.64001 -0.714753 -87.1115 -5.27213 17.9071 4.11775 0.849365 18.5826 17.4463 -6.00842 -27.5642 -0.933181 -1.35001e-009 8.75214e-006 -1.4629e-008 0.0270538 11.4413 -1.15772 0.246748 2.18777 -1.11865 38.7349 1.78415 -0.0231711 37.1545 -18.6611 -2.07684 7.90604 36.1513 8.91566 -9.38046 9.48738 0.104995 -45.7429 3.60659 -3.35952 -25.4607 -19.7565 7.06095 -9.52605 45.0778 -6.31024 5.82328 9.61819 -0.917488 0.923965 -14.3349 -6.08509 -1.04156 -18.3558 -3.6244 1.39176 17.4484 -20.1485 2.63953 -2.91799 -0.254985 0.0462048 0.000530889 0.662642 
68.1519 97.5447 2.47625 -7.61616 0.784681 -88.014 -3.48479 18.2424 4.40065 1.03779 21.4993 17.5865 -8.92852 -26.4394 -1.37626 -1.35001e-009 8.75214e-006 -1.4629e-008 2.39515 11.3315 -1.26014 -0.26938 2.30246 -0.86685 38.6368 1.78238 -0.0132303 37.2257 -19.7291 -0.920582 8.3039 37.0106 8.01794 -9.44209 9.50204 -0.138049 -46.1042 3.63152 -3.35446 -25.2276 -21.6933 8.65498 -10.2465 46.4014 -4.76645 5.82328 9.61819 -0.917488 0.858159 -15.6113 -5.53317 1.34428 -18.2362 -3.35025 1.01011 19.8586 -18.8645 0.897446 -2.16595 -0.182943 0.0462048 0.000530889 0.662642 
65.2891 97.6222 2.0654 -7.66144 1.93299 -88.6965 -1.70494 17.6378 4.52677 0.989437 26.2678 17.2897 -12.4125 -24.3026 -1.73519 -1.35001e-009 8.75214e-006 -1.4629e-008 4.03574 11.3301 -1.5455 -0.273556 2.21961 -0.911821 38.3585 1.77736 -0.001966 37.5818 -19.9972 0.242591 8.3796 37.5639 7.74169 -9.1743 9.5209 -0.230998 -46.1722 3.62736 -3.3368 -25.2967 -22.5346 10.3088 -10.1997 46.3258 -4.54474 5.82328 9.61819 -0.917488 0.601924 -16.1176 -4.71914 3.39113 -17.5322 -3.02267 0.51199 22.111 -17.9934 -0.493652 -4.3361 -0.13658 0.0462048 0.000530889 0.662642 
62.5428 97.8357 1.59719 -7.54584 2.59632 -88.4613 0.0620091 15.2679 4.20643 1.03386 33.3308 16.3678 -15.0692 -20.18 -1.59089 -1.35001e-009 8.75214e-006 -1.4629e-008 4.89692 11.3048 -2.02962 0.294802 1.81207 -1.25854 38.1611 1.77029 -0.00165375 37.8067 -18.3983 0.582024 7.77568 35.5865 9.2112 -9.02931 9.52065 -0.13495 -45.9486 3.5998 -3.31687 -25.6098 -22.3716 11.3807 -9.85089 45.9596 -5.03658 5.82328 9.61819 -0.917488 0.273947 -15.6321 -4.22075 4.50382 -16.4856 -2.79615 0.550403 23.4554 -18.3968 -1.39548 -6.71769 -0.152535 0.0462048 0.000530889 0.662642 
59.9732 98.0756 1.13829 -7.30822 3.05104 -87.8062 1.72648 11.0857 3.18069 1.15688 42.3301 15.9478 -15.1906 -13.3819 -0.724405 -1.35001e-009 8.75214e-006 -1.4629e-008 5.80873 11.2506 -2.44606 0.699294 1.33132 -1.49102 38.0419 1.76745 0.00262156 37.9746 -14.9343 0.445981 6.91918 30.9043 11.8735 -9.29822 9.49805 0.00944145 -45.6667 3.57265 -3.30664 -26.0264 -21.6512 11.3696 -9.11849 45.5022 -6.19971 5.82328 9.61819 -0.917488 0.0771543 -14.8707 -4.31766 5.08878 -15.421 -2.8954 0.972501 24.1666 -19.046 -1.2859 -8.39073 -0.183789 0.0462048 0.000530889 0.662642 
57.6529 98.1536 0.744354 -7.26702 3.70189 -87.2824 3.16727 6.12083 1.91819 1.37354 51.7136 15.9939 -13.3018 -6.04359 0.207225 -1.35001e-009 8.75214e-006 -1.4629e-008 7.24252 11.4453 -2.68231 0.713105 1.07923 -1.40808 37.8447 1.76608 0.0220126 38.2074 -10.9655 0.798613 6.30833 26.282 14.2891 -9.65567 9.46493 0.229349 -45.5706 3.56639 -3.30996 -26.4804 -20.5048 10.4169 -7.65784 43.8568 -8.46552 5.82328 9.61819 -0.917488 0.0910823 -14.5229 -4.7242 5.81378 -14.3261 -3.01319 1.41767 24.9232 -19.4729 -0.656983 -10.1507 -0.202656 0.0462048 0.000530889 0.662642 
55.5289 98.1388 0.406443 -7.59197 4.29261 -87.0153 4.04309 1.57327 0.750695 1.69309 59.6912 16.0067 -11.3928 -2.2398 0.545878 -1.35001e-009 8.75214e-006 -1.4629e-008 8.6175 12.0065 -2.77828 0.657734 1.05494 -1.13712 37.5878 1.7652 0.0442719 38.2722 -7.69506 1.96684 5.90575 23.7987 15.8044 -9.82534 9.42933 0.587375 -45.6335 3.57553 -3.31714 -27.0973 -18.2183 9.02398 -5.52536 39.8895 -11.9544 5.82328 9.61819 -0.917488 0.253701 -14.511 -5.07897 6.60185 -12.9137 -2.9621 1.78664 25.6598 -19.9249 -0.457546 -12.0939 -0.22005 0.0462048 0.000530889 0.662642 
53.4183 98.2823 0.0903554 -8.06642 4.35495 -87.0896 3.99596 -2.2003 -0.138513 2.04814 65.19 15.8883 -10.2038 -3.1648 0.407638 -1.35001e-009 8.75214e-006 -1.4629e-008 9.21331 12.596 -2.66456 0.51269 1.06996 -0.760301 37.4335 1.76476 0.0555333 38.0871 -5.32374 3.55169 5.66367 22.7505 16.6091 -10.0392 9.39342 0.904762 -45.6057 3.57513 -3.31955 -27.9329 -14.2923 7.61978 -3.1384 33.9381 -16.2278 5.82328 9.61819 -0.917488 0.50859 -14.3664 -5.34518 6.92523 -11.026 -2.84062 2.06813 25.7804 -20.2336 -0.68847 -13.5599 -0.247076 0.0462048 0.000530889 0.662642 
51.2826 98.5512 -0.201959 -8.40674 3.98473 -87.5384 3.26609 -5.54434 -0.88769 2.30645 68.0213 15.7218 -9.49773 -6.23747 0.140694 -1.35001e-009 8.75214e-006 -1.4629e-008 9.25644 12.915 -2.35785 0.0804141 1.02153 -0.292654 37.365 1.76469 0.0635137 37.9739 -4.12728 5.13964 5.58687 22.2284 16.9547 -10.3088 9.37939 0.897251 -45.371 3.55466 -3.31447 -28.593 -10.5165 6.4963 -0.816113 28.5612 -20.8114 5.82328 9.61819 -0.917488 0.77007 -13.9071 -5.61911 6.77953 -9.05279 -2.85833 2.13781 25.5055 -19.9023 -0.729156 -14.6611 -0.263548 0.0462048 0.000530889 0.662642 
